Point(1) = {-1.0005, -1.0003, -0.9999};
Point(2) = {-0.9992, -1.0007, -0.0006};
Point(3) = {-0.9995, -0.9995, 1.0000};
Point(4) = {-1.0009, 0.0003, -1.0002};
Point(5) = {-1.0008, -0.0007, 0.0009};
Point(6) = {-0.9991, -0.0006, 1.0006};
Point(7) = {-0.9993, 1.0003, -0.9997};
Point(8) = {-0.9996, 0.9992, -0.0006};
Point(9) = {-0.9993, 1.0004, 0.9991};
Point(10) = {-0.0003, -1.0000, -0.9995};
Point(11) = {-0.0002, -0.9999, 0.0007};
Point(12) = {-0.0002, -0.9990, 0.9993};
Point(13) = {0.0004, 0.0003, -1.0003};
Point(14) = {-0.0003, -0.0008, 0.0001};
Point(15) = {0.0003, 0.0007, 1.0000};
Point(16) = {-0.0002, 1.0000, -1.0003};
Point(17) = {0.0005, 0.9995, 0.0004};
Point(18) = {-0.0005, 0.9997, 1.0000};
Point(19) = {0.9997, -1.0000, -1.0009};
Point(20) = {0.9996, -0.9995, 0.0007};
Point(21) = {0.9995, -0.9999, 1.0009};
Point(22) = {1.0006, 0.0000, -1.0001};
Point(23) = {1.0005, 0.0004, -0.0002};
Point(24) = {0.9995, -0.0010, 0.9992};
Point(25) = {1.0001, 1.0003, -0.9992};
Point(26) = {1.0001, 1.0006, -0.0002};
Point(27) = {1.0007, 1.0004, 0.9997};
//+
Line(1) = {9, 18};
//+
Line(2) = {18, 27};
//+
Line(3) = {27, 24};
//+
Line(4) = {24, 21};
//+
Line(5) = {21, 12};
//+
Line(6) = {12, 3};
//+
Line(7) = {3, 6};
//+
Line(8) = {6, 9};
//+
Line(9) = {18, 15};
//+
Line(10) = {15, 24};
//+
Line(11) = {15, 12};
//+
Line(12) = {15, 6};
//+
Line(13) = {3, 2};
//+
Line(14) = {2, 1};
//+
Line(15) = {1, 10};
//+
Line(16) = {10, 19};
//+
Line(17) = {19, 20};
//+
Line(18) = {20, 21};
//+
Line(19) = {20, 11};
//+
Line(20) = {11, 12};
//+
Line(21) = {11, 2};
//+
Line(22) = {11, 10};
//+
Line(23) = {19, 22};
//+
Line(24) = {22, 25};
//+
Line(25) = {25, 26};
//+
Line(26) = {26, 27};
//+
Line(27) = {23, 26};
//+
Line(28) = {23, 20};
//+
Line(29) = {23, 24};
//+
Line(30) = {23, 22};
//+
Line(31) = {25, 16};
//+
Line(32) = {16, 7};
//+
Line(33) = {7, 8};
//+
Line(34) = {8, 9};
//+
Line(35) = {17, 18};
//+
Line(36) = {17, 16};
//+
Line(37) = {26, 17};
//+
Line(38) = {17, 8};
//+
Line(39) = {7, 4};
//+
Line(40) = {4, 1};
//+
Line(41) = {4, 5};
//+
Line(42) = {5, 2};
//+
Line(43) = {5, 6};
//+
Line(44) = {5, 8};
//+
Line(45) = {13, 10};
//+
Line(46) = {13, 4};
//+
Line(47) = {13, 16};
//+
Line(48) = {13, 22};
//+
Line(49) = {14, 13};
//+
Line(50) = {14, 5};
//+
Line(51) = {14, 15};
//+
Line(52) = {14, 23};
//+
Line(53) = {14, 11};
//+
Line(54) = {14, 17};
//+
Line Loop(55) = {7, -43, 42, -13};
//+
Plane Surface(56) = {55};
//+
Line Loop(57) = {14, -40, 41, 42};
//+
Plane Surface(58) = {57};
//+
Line Loop(59) = {33, -44, -41, -39};
//+
Plane Surface(60) = {59};
//+
Line Loop(61) = {34, -8, -43, 44};
//+
Plane Surface(62) = {61};
//+
Line Loop(63) = {38, -33, -32, -36};
//+
Plane Surface(64) = {63};
//+
Line Loop(65) = {31, -36, -37, -25};
//+
Plane Surface(66) = {65};
//+
Line Loop(67) = {35, 2, -26, 37};
//+
Plane Surface(68) = {67};
//+
Line Loop(69) = {1, -35, 38, 34};
//+
Plane Surface(70) = {69};
//+
Line Loop(71) = {47, 32, 39, -46};
//+
Plane Surface(72) = {71};
//+
Line Loop(73) = {40, 15, -45, 46};
//+
Plane Surface(74) = {73};
//+
Line Loop(75) = {45, 16, 23, -48};
//+
Plane Surface(76) = {75};
//+
Line Loop(77) = {47, -31, -24, -48};
//+
Plane Surface(78) = {77};
//+
Line Loop(79) = {24, 25, -27, 30};
//+
Plane Surface(80) = {79};
//+
Line Loop(81) = {23, -30, 28, -17};
//+
Plane Surface(82) = {81};
//+
Line Loop(83) = {28, 18, -4, -29};
//+
Plane Surface(84) = {83};
//+
Line Loop(85) = {27, 26, 3, -29};
//+
Plane Surface(86) = {85};
//+
Line Loop(87) = {3, -10, -9, 2};
//+
Plane Surface(88) = {87};
//+
Line Loop(89) = {1, 9, 12, 8};
//+
Plane Surface(90) = {89};
//+
Line Loop(91) = {6, 7, -12, 11};
//+
Plane Surface(92) = {91};
//+
Line Loop(93) = {5, -11, 10, 4};
//+
Plane Surface(94) = {93};
//+
Line Loop(95) = {18, 5, -20, -19};
//+
Plane Surface(96) = {95};
//+
Line Loop(97) = {17, 19, 22, 16};
//+
Plane Surface(98) = {97};
//+
Line Loop(99) = {20, 6, 13, -21};
//+
Plane Surface(100) = {99};
//+
Line Loop(101) = {21, 14, 15, -22};
//+
Plane Surface(102) = {101};
//+
Line Loop(103) = {49, 46, 41, -50};
//+
Plane Surface(104) = {103};
//+
Line Loop(105) = {51, 12, -43, -50};
//+
Plane Surface(106) = {105};
//+
Line Loop(107) = {10, -29, -52, 51};
//+
Plane Surface(108) = {107};
//+
Line Loop(109) = {48, -30, -52, 49};
//+
Plane Surface(110) = {109};
//+
Line Loop(111) = {45, -22, -53, 49};
//+
Plane Surface(112) = {111};
//+
Line Loop(113) = {47, -36, -54, 49};
//+
Plane Surface(114) = {113};
//+
Line Loop(115) = {54, 35, 9, -51};
//+
Plane Surface(116) = {115};
//+
Line Loop(117) = {53, 20, -11, -51};
//+
Plane Surface(118) = {117};
//+
Line Loop(119) = {28, 19, -53, 52};
//+
Plane Surface(120) = {119};
//+
Line Loop(121) = {27, 37, -54, 52};
//+
Plane Surface(122) = {121};
//+
Line Loop(123) = {54, 38, -44, -50};
//+
Plane Surface(124) = {123};
//+
Line Loop(125) = {53, 21, -42, -50};
//+
Plane Surface(126) = {125};
//+
Surface Loop(127) = {78, 66, 80, 114, 122, 110};
//+
Volume(128) = {127};
//+
Surface Loop(129) = {72, 64, 60, 114, 124, 104};
//+
Volume(130) = {129};
//+
Surface Loop(131) = {74, 58, 102, 104, 112, 126};
//+
Volume(132) = {131};
//+
Surface Loop(133) = {76, 98, 82, 112, 110, 120};
//+
Volume(134) = {133};
//+
Surface Loop(135) = {94, 96, 84, 118, 120, 108};
//+
Volume(136) = {135};
//+
Surface Loop(137) = {88, 86, 68, 116, 122, 108};
//+
Volume(138) = {137};
//+
Surface Loop(139) = {90, 70, 62, 106, 124, 116};
//+
Volume(140) = {139};
//+
Surface Loop(141) = {92, 100, 56, 126, 106, 118};
//+
Volume(142) = {141};

Transfinite Line "*" = 2;
Transfinite Surface "*";
Recombine Surface "*";
Transfinite Volume "*";//+
Physical Volume("domain") = {142, 140, 132, 138, 130, 128, 134, 136};
//+
Physical Surface("inlet") = {92, 90, 88, 94};
//+
Physical Surface("outlet") = {72, 74, 78, 76};
